<svg width="122" height="228" viewBox="0 0 122 228" fill="none" xmlns="http://www.w3.org/2000/svg">
<g opacity="0.04" clip-path="url(#clip0_2198_4)">
<path d="M117.056 4.55928C139.696 28.005 71.255 69.6798 61.038 75.6959C56.107 82.7242 51.514 89.5917 47.2283 96.3129C58.048 86.9443 116.399 38.0294 121.578 69.3984C126.969 102.133 54.097 98.3616 46.2304 97.87C38.3871 110.266 31.6187 122.087 25.7904 133.193C37.8964 125.333 108.652 81.1251 111.805 120.258C114.068 148.338 35.1173 136.184 25.0702 134.534C20.1853 143.911 15.9797 152.754 12.3385 160.995C24.4522 156.47 86.658 134.412 82.598 160.741C78.46 187.597 21.3843 166.494 11.7135 162.418C6.59069 174.149 2.64938 184.594 -0.343216 193.509C5.23878 191.009 55.177 169.272 53.477 193.251C51.752 217.593 4.11808 196.351 -0.484116 193.961C-7.46202 214.826 -9.32302 227.192 -9.37392 227.526L-10.8255 227.327C-10.7836 227.005 -9.01591 215.211 -2.45002 195.223C-8.77002 192.057 -62.2258 164.626 -46.7162 148.884C-32.5848 134.538 -5.90211 187.233 -2.25151 194.648C0.305286 186.909 3.58979 177.966 7.76019 167.977C-0.792515 161.895 -61.6008 117.488 -30.6098 104.653C-11.8418 96.8735 5.57998 154.35 8.38448 166.469C9.02818 164.948 9.71829 163.379 10.3981 161.811C10.3759 161.803 10.3199 161.779 10.3186 161.769C10.3186 161.769 10.3988 161.737 10.439 161.721C13.6413 154.393 17.3075 146.582 21.4966 138.332C13.2748 130.36 -41.0128 76.4126 -15.0565 66.5436C7.06959 58.1308 19.8279 123.782 22.1587 137.03C25.9587 129.592 30.2094 121.809 34.9073 113.735C27.9486 103.896 -19.3645 31.375 14.0304 37.0567C36.1923 40.8226 36.8622 97.5239 36.1133 111.675C40.6655 103.937 45.6469 95.9305 51.095 87.7043C47.4801 76.8007 25.0501 6.18729 51.73 8.26902C75.667 10.1323 58.483 68.1786 53.07 84.7512C55.585 81.0089 58.178 77.2245 60.892 73.3925C66.962 57.2399 96.341 -16.8707 117.081 4.58767L117.056 4.55928Z" fill="#3A3A3A"/>
</g>
<defs>
<clipPath id="clip0_2198_4">
<rect width="172" height="228" fill="white" transform="translate(-50)"/>
</clipPath>
</defs>
</svg>
