<svg width="191" height="339" viewBox="0 0 191 339" fill="none" xmlns="http://www.w3.org/2000/svg">
<g opacity="0.04" clip-path="url(#clip0_2224_2)">
<path d="M7.69339 6.28356C-26.0399 41.2182 75.9383 103.315 91.1617 112.279C98.5092 122.751 105.353 132.984 111.739 142.998C95.6177 129.039 8.6721 56.1548 0.956041 102.895C-7.07601 151.671 101.503 146.051 113.226 145.319C124.912 163.789 134.997 181.403 143.682 197.951C125.643 186.24 20.2153 120.368 15.5174 178.677C12.1455 220.517 129.784 202.408 144.755 199.949C152.033 213.92 158.3 227.097 163.725 239.376C145.676 232.634 52.9875 199.767 59.0372 238.997C65.2033 279.014 150.247 247.569 164.656 241.497C172.29 258.976 178.162 274.539 182.621 287.823C174.304 284.097 99.895 251.709 102.427 287.439C104.998 323.709 175.974 292.058 182.831 288.496C193.228 319.585 196.001 338.011 196.077 338.509L198.24 338.212C198.178 337.732 195.544 320.159 185.76 290.377C195.177 285.659 274.828 244.787 251.718 221.331C230.662 199.955 190.904 278.472 185.465 289.52C181.655 277.989 176.761 264.663 170.547 249.779C183.291 240.718 273.896 174.55 227.719 155.425C199.754 143.834 173.796 229.474 169.617 247.532C168.658 245.266 167.629 242.928 166.616 240.592C166.649 240.58 166.733 240.544 166.735 240.529C166.735 240.529 166.615 240.482 166.556 240.458C161.784 229.539 156.321 217.9 150.079 205.608C162.33 193.729 243.22 113.347 204.544 98.6416C171.576 86.1063 152.566 183.928 149.093 203.668C143.431 192.585 137.097 180.988 130.097 168.957C140.466 154.297 210.963 46.2395 161.204 54.7054C128.183 60.3168 127.184 144.803 128.3 165.888C121.517 154.358 114.095 142.429 105.977 130.171C111.363 113.925 144.785 8.70931 105.031 11.8111C69.3638 14.5875 94.9696 101.078 103.034 125.771C99.2873 120.195 95.4229 114.556 91.3792 108.847C82.3354 84.7788 38.5601 -25.6476 7.65633 6.32586L7.69339 6.28356Z" fill="#3A3A3A"/>
</g>
<defs>
<clipPath id="clip0_2224_2">
<rect width="256" height="339" fill="white"/>
</clipPath>
</defs>
</svg>
