<svg width="174" height="160" viewBox="0 0 174 160" fill="none" xmlns="http://www.w3.org/2000/svg">
<path d="M91.0388 151.5C91.0388 151.5 -18.4612 171.5 23.6325 75.7057C28.5932 51.8275 42.1371 34.4442 56.2813 37.2054C66.1906 39.1351 76.5295 52.0158 84.1903 28.9373C85.2674 25.7047 86.5332 22.8499 87.9535 20.3552C90.3164 16.2129 93.1169 13.0596 96.1724 10.8634C96.1995 10.848 96.2326 10.8315 96.2668 10.8007C96.5026 10.6278 96.7446 10.4713 96.9935 10.3139C97.0276 10.283 97.0608 10.2665 97.1009 10.2357C97.384 10.0473 97.6731 9.87443 97.9622 9.70256C97.9893 9.68713 98.0164 9.67066 98.0435 9.67066C98.6086 9.34134 99.1807 9.04288 99.7599 8.79177V8.77633C99.794 8.7609 99.8201 8.74443 99.8543 8.74443C100.386 8.49332 100.924 8.27411 101.469 8.08578C101.867 7.94479 102.27 7.81923 102.674 7.70911C103.771 7.41066 104.882 7.20689 106.006 7.09677C107.387 6.95578 108.787 6.97122 110.193 7.12765C110.227 7.12765 110.26 7.12765 110.295 7.14308C110.618 7.17499 110.934 7.2213 111.257 7.26864C111.291 7.28408 111.324 7.28408 111.359 7.28408C119.052 8.60241 126.753 14.2185 132.603 23.5847C132.631 23.6156 132.664 23.6629 132.691 23.7102C133.425 24.8866 134.131 26.1421 134.805 27.444C134.845 27.5222 134.885 27.6004 134.926 27.6632C139.679 36.9821 142.728 49.2197 142.728 63.9992C142.728 66.4311 142.648 68.9411 142.473 71.514C142.459 71.7332 142.445 71.9534 142.425 72.1572C142.371 72.9733 142.304 73.7894 142.224 74.6045C142.055 76.4251 141.941 78.3383 141.584 80.1743C134.172 118.063 174.539 136 91.0388 151.5Z" fill="#D3E6D3"/>
<g clip-path="url(#clip0_5_1876)">
<path d="M115.299 73.5C115.299 73.5 115.249 73.58 115.149 73.73C114.829 74.21 114.029 75.41 112.849 77.06C106.259 86.32 88.0386 109.85 78.7486 100.97C78.6086 100.84 78.4686 100.7 78.3286 100.55C78.3286 100.55 78.4586 100.24 78.6886 99.67C79.9486 96.55 84.3186 85.73 87.6186 77.52C89.7286 72.28 91.3886 68.09 91.5386 67.63C98.2786 46.51 97.9886 27.48 97.6886 26.43C97.6886 26.43 106.609 24.26 110.489 29.72C112.329 32.32 113.159 35.76 113.369 39.12C113.489 40.92 113.439 42.7 113.279 44.3V44.32C113.109 46 112.819 47.49 112.479 48.62C111.629 51.51 110.139 65.11 113.089 71.06C113.649 72.2 114.379 73.05 115.299 73.5Z" fill="#F9BB8D"/>
<path d="M155.099 81.14C150.089 85.79 148.349 131.43 147.119 131.79C145.879 132.14 99.2986 132.15 93.7086 129.86C88.1186 127.57 79.7486 124.18 79.7486 124.18L78.8586 103.67L78.7486 100.97L78.6886 99.67L78.3286 91.35L87.6186 77.52L87.9686 77L108.389 73.78C108.529 73.78 108.719 73.76 108.949 73.75C109.799 73.72 111.229 73.71 113.019 73.71C113.679 73.72 114.399 73.72 115.149 73.73C124.089 73.82 138.499 74.21 139.709 74.33C141.469 74.51 160.789 75.85 155.099 81.14Z" fill="#F9BB8D"/>
<path d="M158.349 84.88C158.349 88.77 155.469 91.92 151.919 91.92H124.829C121.279 91.92 118.399 88.77 118.399 84.88V83.47C118.399 79.58 121.279 76.43 124.829 76.43H151.919C155.469 76.43 158.349 79.58 158.349 83.47V84.88Z" fill="#F9BB8D"/>
<path d="M159.799 100.37C159.799 104.26 156.919 107.41 153.369 107.41H119.049C115.499 107.41 112.619 104.26 112.619 100.37V98.96C112.619 95.07 115.499 91.92 119.049 91.92H153.369C156.919 91.92 159.799 95.07 159.799 98.96V100.37Z" fill="#F9BB8D"/>
<path d="M156.629 114.47C156.629 117.71 154.229 120.34 151.269 120.34H122.649C119.689 120.34 117.289 117.71 117.289 114.47V113.3C117.289 110.06 119.689 107.43 122.649 107.43H151.269C154.229 107.43 156.629 110.06 156.629 113.3V114.47Z" fill="#F9BB8D"/>
<path d="M154.979 126.58C154.979 129.45 152.849 131.78 150.229 131.78H124.889C122.269 131.78 120.139 129.45 120.139 126.58V125.54C120.139 122.67 122.269 120.34 124.889 120.34H150.229C152.849 120.34 154.979 122.67 154.979 125.54V126.58Z" fill="#F9BB8D"/>
<path d="M91.2086 86.05H51.7886V127.33H91.2086V86.05Z" fill="#F9BB8D"/>
<path d="M77.4686 81.29H50.5386V135.15H77.4686V81.29Z" fill="#5DA457"/>
<path d="M97.1986 40.04C97.1986 40.04 100.539 39.99 100.849 37.81C101.159 35.62 101.179 27.41 100.039 26.81C98.8986 26.21 97.6886 26.43 97.6886 26.43L97.1986 40.05V40.04Z" fill="#FAC7A0"/>
<circle cx="64.0386" cy="94.5" r="5.5" fill="#31632C"/>
</g>
<defs>
<clipPath id="clip0_5_1876">
<rect width="109.26" height="109.15" fill="white" transform="translate(50.5386 26)"/>
</clipPath>
</defs>
</svg>
