<?xml version="1.0" encoding="UTF-8"?>
<svg version="1.1" xmlns="http://www.w3.org/2000/svg" width="160" height="174">
<path d="M0 0 C52.8 0 105.6 0 160 0 C160 57.42 160 114.84 160 174 C107.2 174 54.4 174 0 174 C0 116.58 0 59.16 0 0 Z " fill="#FEFEFE" transform="translate(0,0)"/>
<path d="M0 0 C10.235302 4.45013131 16.30723799 13.12824132 21.1015625 22.87109375 C24.55877461 31.84936885 25.80887739 39.8988141 25.61328125 49.5 C25.60429306 50.63473755 25.59530487 51.7694751 25.58604431 52.93859863 C25.55627592 56.53230908 25.50653107 60.12531902 25.453125 63.71875 C25.40503603 67.31213178 25.36170415 70.90532776 25.33091736 74.49890137 C25.31141615 76.72403414 25.28208992 78.94911171 25.24098206 81.1739502 C25.18233674 87.28507417 25.68282302 92.93776542 26.93034363 98.92497253 C28.1872268 105.18855492 28.33945392 112.45512984 25.390625 118.21875 C19.46928279 125.95155546 10.70196111 128.71472442 1.640625 131.21875 C0.27079468 131.60111816 0.27079468 131.60111816 -1.12670898 131.99121094 C-14.74584487 135.70733128 -28.15087141 138.19929732 -42.21948242 139.28564453 C-49.09787299 139.92660248 -55.25734466 141.73473933 -61.69970703 144.18701172 C-65.82788112 145.74701581 -69.10899737 146.6453913 -73.609375 146.21875 C-73.939375 145.88875 -74.269375 145.55875 -74.609375 145.21875 C-74.51935102 143.19466245 -74.36296462 141.17330713 -74.171875 139.15625 C-74.07003906 138.05152344 -73.96820313 136.94679687 -73.86328125 135.80859375 C-73.77949219 134.95394531 -73.69570312 134.09929687 -73.609375 133.21875 C-74.3415625 133.10917969 -75.07375 132.99960938 -75.828125 132.88671875 C-82.75949153 131.22202258 -88.7062847 126.01762702 -92.609375 120.21875 C-97.03700532 112.35388035 -97.09039505 105.06951901 -96.609375 96.21875 C-96.56554687 95.0740625 -96.52171875 93.929375 -96.4765625 92.75 C-96.11893405 86.09500104 -95.12826032 80.38221717 -92.609375 74.21875 C-91.96327061 72.63552726 -91.31745028 71.05218857 -90.671875 69.46875 C-90.32898438 68.63472656 -89.98609375 67.80070312 -89.6328125 66.94140625 C-88.51405296 63.96516426 -87.6585699 60.96637162 -86.796875 57.90625 C-83.39103369 46.66829892 -77.95332905 35.50325423 -67.734375 29.03125 C-62.12162627 26.88519902 -55.36670849 27.50390248 -49.921875 29.71875 C-48.82875 30.21375 -47.735625 30.70875 -46.609375 31.21875 C-43.5038712 31.72924378 -40.70158179 31.84919993 -37.609375 31.21875 C-34.38312084 28.41700297 -33.03321489 25.17055613 -31.453125 21.24609375 C-27.89899767 12.70631558 -24.16098223 4.97942955 -15.94140625 0.17578125 C-10.63464405 -2.00203573 -5.42075715 -1.62298118 0 0 Z " fill="#D3E4D2" transform="translate(114.609375,14.78125)"/>
<path d="M0 0 C5.76671473 0.87044751 9.57265138 5.35731176 13.05859375 9.84765625 C13.96363201 11.08017325 14.86039519 12.31879759 15.75 13.5625 C16.79184761 14.9851967 17.83487931 16.4070268 18.87890625 17.828125 C19.70672607 18.96024414 19.70672607 18.96024414 20.55126953 20.11523438 C23.7080653 24.38964262 26.95487732 28.59534385 30.1875 32.8125 C36.55812753 41.15108525 42.83500841 49.55272624 49.0234375 58.02734375 C51.20148345 61.00650263 53.41500378 63.95301689 55.6640625 66.87890625 C56.44656372 67.90878662 56.44656372 67.90878662 57.24487305 68.95947266 C58.22054204 70.24169004 59.20585514 71.51664828 60.20239258 72.78271484 C63.27181164 76.847856 63.27181164 76.847856 63.453125 79.75390625 C61.69446761 82.44609753 59.62244596 82.92974185 56.625 84 C55.58988281 84.3815625 54.55476563 84.763125 53.48828125 85.15625 C50.05576647 86.30867637 46.57953549 87.26284988 43.08984375 88.2265625 C33.77051195 90.86188405 24.68481598 94.13322782 15.5625 97.375 C9.64797999 99.46967904 3.73109964 101.55740792 -2.19213867 103.62731934 C-3.87207089 104.21482718 -5.5512585 104.80446803 -7.22973633 105.39611816 C-9.67596266 106.25552949 -12.12628828 107.10206061 -14.578125 107.9453125 C-15.30819763 108.20400116 -16.03827026 108.46268982 -16.79046631 108.72921753 C-20.87848328 110.11854988 -24.36773632 110.87552397 -28.6875 110.5 C-29.6875 109.5 -29.6875 109.5 -29.7421875 107.4453125 C-29.2196665 99.24400462 -27.31654745 91.72815655 -25.13208008 83.85205078 C-23.75873203 78.82962004 -22.52215315 73.78339529 -21.33203125 68.71484375 C-21.11905899 67.81443359 -20.90608673 66.91402344 -20.68666077 65.98632812 C-20.01824252 63.15802643 -19.35245955 60.32911672 -18.6875 57.5 C-18.47563049 56.59903595 -18.26376099 55.6980719 -18.04547119 54.76980591 C-17.62416581 52.97811022 -17.20293147 51.18639782 -16.7817688 49.39466858 C-15.94201674 45.82457213 -15.10006536 42.25499646 -14.25756836 38.68554688 C-13.8325655 36.88121209 -13.40908567 35.07651796 -12.98706055 33.27148438 C-5.43961823 1.012022 -5.43961823 1.012022 0 0 Z " fill="#D3E3D0" transform="translate(69.6875,50.5)"/>
<path d="M0 0 C5.76671473 0.87044751 9.57265138 5.35731176 13.05859375 9.84765625 C13.96363201 11.08017325 14.86039519 12.31879759 15.75 13.5625 C16.79184761 14.9851967 17.83487931 16.4070268 18.87890625 17.828125 C19.70672607 18.96024414 19.70672607 18.96024414 20.55126953 20.11523438 C23.7080653 24.38964262 26.95487732 28.59534385 30.1875 32.8125 C36.55812753 41.15108525 42.83500841 49.55272624 49.0234375 58.02734375 C51.20148345 61.00650263 53.41500378 63.95301689 55.6640625 66.87890625 C56.44656372 67.90878662 56.44656372 67.90878662 57.24487305 68.95947266 C58.22054204 70.24169004 59.20585514 71.51664828 60.20239258 72.78271484 C63.27181164 76.847856 63.27181164 76.847856 63.453125 79.75390625 C61.69446761 82.44609753 59.62244596 82.92974185 56.625 84 C55.58988281 84.3815625 54.55476563 84.763125 53.48828125 85.15625 C50.05576647 86.30867637 46.57953549 87.26284988 43.08984375 88.2265625 C33.77051195 90.86188405 24.68481598 94.13322782 15.5625 97.375 C9.64797999 99.46967904 3.73109964 101.55740792 -2.19213867 103.62731934 C-3.87207089 104.21482718 -5.5512585 104.80446803 -7.22973633 105.39611816 C-9.67596266 106.25552949 -12.12628828 107.10206061 -14.578125 107.9453125 C-15.30819763 108.20400116 -16.03827026 108.46268982 -16.79046631 108.72921753 C-20.87848328 110.11854988 -24.36773632 110.87552397 -28.6875 110.5 C-29.6875 109.5 -29.6875 109.5 -29.7421875 107.4453125 C-29.2196665 99.24400462 -27.31654745 91.72815655 -25.13208008 83.85205078 C-23.75873203 78.82962004 -22.52215315 73.78339529 -21.33203125 68.71484375 C-21.11905899 67.81443359 -20.90608673 66.91402344 -20.68666077 65.98632812 C-20.01824252 63.15802643 -19.35245955 60.32911672 -18.6875 57.5 C-18.47563049 56.59903595 -18.26376099 55.6980719 -18.04547119 54.76980591 C-17.62416581 52.97811022 -17.20293147 51.18639782 -16.7817688 49.39466858 C-15.94201674 45.82457213 -15.10006536 42.25499646 -14.25756836 38.68554688 C-13.8325655 36.88121209 -13.40908567 35.07651796 -12.98706055 33.27148438 C-5.43961823 1.012022 -5.43961823 1.012022 0 0 Z M0.3125 5.5 C0.19037643 6.0498053 0.06825287 6.5996106 -0.05757141 7.16607666 C-5.26012245 30.58354845 -10.47129265 53.99267637 -16.1796875 77.29296875 C-16.68288112 79.36183589 -17.18547639 81.43084864 -17.6875 83.5 C-17.97141602 84.65709473 -18.25533203 85.81418945 -18.54785156 87.00634766 C-18.82338867 88.15538574 -19.09892578 89.30442383 -19.3828125 90.48828125 C-19.75817139 92.03769409 -19.75817139 92.03769409 -20.14111328 93.6184082 C-20.65515243 96.32940197 -20.79306199 98.7500153 -20.6875 101.5 C3.40906278 93.77220312 27.40539886 85.79579744 51.3125 77.5 C51.3125 73.26392631 51.1135884 72.74105593 48.70703125 69.5859375 C48.14234131 68.8343335 47.57765137 68.08272949 46.99584961 67.30834961 C46.37846924 66.50534424 45.76108887 65.70233887 45.125 64.875 C43.82988091 63.15558652 42.53562963 61.43551909 41.2421875 59.71484375 C40.2536377 58.40749268 40.2536377 58.40749268 39.24511719 57.07373047 C36.36080161 53.23259166 33.55251099 49.33851946 30.75 45.4375 C29.68102716 43.9544 28.61201664 42.47132716 27.54296875 40.98828125 C25.90403314 38.71173233 24.26560732 36.43481768 22.62744141 34.15771484 C14.42912293 22.75908526 14.42912293 22.75908526 6.125 11.4375 C5.43019531 10.49777344 4.73539063 9.55804688 4.01953125 8.58984375 C2.47899614 6.41249836 2.47899614 6.41249836 0.3125 5.5 Z " fill="#FD7E36" transform="translate(69.6875,50.5)"/>
<path d="M0 0 C0.99 0.33 1.98 0.66 3 1 C5.35435091 6.59158342 6.55055877 12.31557282 7.6875 18.25 C7.81898437 18.93521729 7.95046875 19.62043457 8.0859375 20.32641602 C8.73932614 23.92664013 9.14892414 27.34072119 9 31 C7.35 31.33 5.7 31.66 4 32 C0.28672877 21.67148927 -0.35920807 10.89597816 0 0 Z " fill="#EB262D" transform="translate(74,86)"/>
<path d="M0 0 C0.99 0.33 1.98 0.66 3 1 C1.71186785 4.86439646 -0.65197095 6.31150766 -3.8125 8.625 C-4.34681641 9.03234375 -4.88113281 9.4396875 -5.43164062 9.859375 C-8.20459284 11.91947726 -10.53933275 13.5139983 -14 14 C-11.77870335 9.78253812 -9.17547262 7.13849234 -5.5 4.125 C-4.5409375 3.32320313 -3.581875 2.52140625 -2.59375 1.6953125 C-1.7378125 1.13585937 -0.881875 0.57640625 0 0 Z " fill="#E93136" transform="translate(127,68)"/>
<path d="M0 0 C0.66 0.33 1.32 0.66 2 1 C1.34496718 5.05819183 0.05440879 8.53971282 -1.5625 12.3125 C-2.01753906 13.38113281 -2.47257812 14.44976562 -2.94140625 15.55078125 C-3.46541016 16.76314453 -3.46541016 16.76314453 -4 18 C-4.66 18 -5.32 18 -6 18 C-5.56312913 11.99302549 -4.48283394 4.48283394 0 0 Z " fill="#E93137" transform="translate(109,54)"/>
<path d="M0 0 C0 1.32 0 2.64 0 4 C-1.93742341 4.02703381 -3.87495479 4.04641125 -5.8125 4.0625 C-6.89144531 4.07410156 -7.97039062 4.08570312 -9.08203125 4.09765625 C-12 4 -12 4 -15 3 C-15 2.34 -15 1.68 -15 1 C-9.94997778 -0.03590199 -5.12583611 -0.10251672 0 0 Z " fill="#E83E42" transform="translate(136,89)"/>
<path d="M0 0 C5.61 0 11.22 0 17 0 C17.33 0.99 17.66 1.98 18 3 C12.39 3 6.78 3 1 3 C0.67 2.01 0.34 1.02 0 0 Z " fill="#E83F43" transform="translate(23,97)"/>
<path d="M0 0 C-1.46009124 3.85233114 -3.28341148 5.03643054 -6.9375 6.8125 C-7.81277344 7.25207031 -8.68804688 7.69164063 -9.58984375 8.14453125 C-12 9 -12 9 -15 8 C-14 5 -14 5 -11.6015625 3.61328125 C-10.12816406 2.96939453 -10.12816406 2.96939453 -8.625 2.3125 C-7.64789063 1.87550781 -6.67078125 1.43851562 -5.6640625 0.98828125 C-3 0 -3 0 0 0 Z " fill="#E93539" transform="translate(40,110)"/>
<path d="M0 0 C3.78701343 0.658219 6.53025836 2.38896067 9.75 4.4375 C10.73484375 5.05496094 11.7196875 5.67242187 12.734375 6.30859375 C13.85585938 7.14583984 13.85585938 7.14583984 15 8 C15 8.66 15 9.32 15 10 C11.01957832 9.41190166 8.13752781 8.17968323 4.6875 6.125 C3.80449219 5.61195312 2.92148437 5.09890625 2.01171875 4.5703125 C1.34785156 4.05210938 0.68398438 3.53390625 0 3 C0 2.01 0 1.02 0 0 Z " fill="#EA3035" transform="translate(31,78)"/>
<path d="M0 0 C2.0625 0.4375 2.0625 0.4375 4 1 C4.33 2.32 4.66 3.64 5 5 C3.35 5.33 1.7 5.66 0 6 C-0.38218767 4.34385343 -0.71395102 2.67542976 -1 1 C-0.67 0.67 -0.34 0.34 0 0 Z " fill="#E93237" transform="translate(80,123)"/>
</svg>
