<svg width="131" height="102" viewBox="0 0 131 102" fill="none" xmlns="http://www.w3.org/2000/svg">
<g clip-path="url(#clip0_12_1592)">
<path d="M130.548 72.9631C131.271 56.8031 123.299 42.92 111.264 35.1001C109.011 33.6333 107.541 31.22 107.244 28.5423C107.227 28.3973 107.21 28.2523 107.193 28.1074C104.983 10.3612 88.4517 -2.10634 70.8497 0.298475C54.0127 2.60096 41.8843 11.5295 43.6777 28.7213C43.6777 28.7981 43.6946 28.9175 43.7031 29.071C44.0176 33.7527 40.3544 37.6925 35.6884 37.8034C34.7109 37.8289 33.725 37.8886 32.7306 37.991C12.6469 40.0973 -1.92931 58.2102 0.212505 78.4379C1.18992 87.6905 5.54153 95.7918 11.899 101.642H116.627C124.59 94.001 130.089 83.3925 130.557 72.9631H130.548Z" fill="#D3E6D3"/>
<path d="M127.072 102.057H3.35697C3.16149 102.057 3 101.707 3 101.284C3 100.861 3.16149 100.511 3.35697 100.511H127.072C127.267 100.511 127.429 100.861 127.429 101.284C127.429 101.707 127.267 102.057 127.072 102.057Z" fill="#5DA457"/>
</g>
<path d="M86.8458 66.6356C86.8458 66.6356 86.2952 67.2265 86.0755 67.3786C85.3974 67.8489 83.1633 69.5032 77.9619 70.2591C77.3842 70.3429 76.8348 70.5179 76.2947 70.6191C72.0285 71.4138 72.5356 71.9173 69.4801 73.948C69.4215 73.9871 69.296 74.1302 69.1128 74.3649C68.5033 75.1428 67.2374 76.9285 65.5382 79.2614C63.8637 81.5601 61.7673 84.389 59.4588 87.3107C59.0176 87.8683 58.5668 88.4417 58.1081 89.0256C50.2364 87.127 43.1107 85.1413 37.0266 83.1225C39.8963 80.357 42.6784 77.6746 45.2363 75.2069C48.0527 72.4887 50.4495 70.166 52.4087 68.2649C55.7418 65.0287 57.8044 63.0093 58.5033 62.3304C59.4509 61.4092 61.4566 58.5709 63.7051 55.4112C66.7511 51.1277 70.2428 46.2533 72.1428 44.7636C72.9106 44.162 74.269 43.7602 75.8143 43.4838C77.0884 43.2559 79.7952 44.9174 83.1839 44.4236C85.3188 44.1122 87.279 49.0895 86.4119 50.5647C86.4098 50.5692 86.4067 50.5742 86.4038 50.5784C86.0518 51.1795 85.7255 51.7399 85.4412 52.2346C84.9108 53.1566 84.5301 53.8472 84.407 54.1314C84.3804 54.1929 84.366 54.2351 84.3654 54.2577C84.3565 54.3889 84.3481 54.5186 84.3399 54.6474C84.3071 55.1453 84.2757 55.6175 84.2453 56.0597C84.2442 56.0753 84.2423 56.0908 84.2422 56.1059C84.2264 56.326 84.2121 56.5381 84.1974 56.74C84.1952 56.7772 84.1918 56.8124 84.1898 56.8489C84.1303 57.7025 84.0797 58.3745 84.0508 58.7734C84.0493 58.8049 84.0464 58.836 84.0439 58.8622C84.0281 59.068 84.0201 59.1785 84.0201 59.1785C84.0201 59.1785 85.1685 59.0912 86.0533 59.6726C86.3317 59.854 86.5815 60.1013 86.7631 60.4363C86.8108 60.5237 86.8545 60.6192 86.8932 60.7208C86.9304 60.8187 87.0356 61.2441 87.1664 61.8315C87.1682 61.8429 87.1712 61.853 87.1737 61.8647C87.5628 63.6275 87.2602 66.4404 86.846 66.6382L86.8458 66.6356Z" fill="#F9BB8D"/>
<path d="M69.7068 63.9019L69.7479 63.7389C69.7592 63.7414 70.9043 64.0166 72.4562 63.279C73.895 62.5956 75.9877 60.8792 77.7873 56.5832L77.9462 56.6494C76.9397 59.0534 75.1803 62.182 72.5181 63.4388C70.9122 64.1967 69.7545 63.9152 69.7065 63.9026L69.7068 63.9019Z" fill="#E87765"/>
<path d="M78.2917 62.3752C79.1976 62.8626 80.3305 62.5187 80.8226 61.607L94.2691 36.7002C94.7612 35.7886 94.4259 34.6548 93.52 34.1674C92.6141 33.6801 91.4812 34.024 90.989 34.9356L77.5425 59.8424C77.0504 60.754 77.3858 61.8878 78.2917 62.3752Z" fill="#3A3A3A"/>
<path d="M94.3052 37.4979C102.816 40.4551 112.162 35.9203 115.179 27.369C118.196 18.8177 113.743 9.48822 105.232 6.53099C96.7205 3.57376 87.375 8.10863 84.3577 16.6599C81.3405 25.2112 85.7941 34.5407 94.3052 37.4979Z" fill="#FF6760"/>
<path d="M94.1422 37.9603C89.9027 36.4873 86.5022 33.4435 84.5673 29.3903C82.6324 25.337 82.3943 20.7587 83.8972 16.4992C85.4001 12.2397 88.4643 8.80883 92.5245 6.83864C96.5845 4.86908 101.156 4.59501 105.395 6.06805C109.635 7.54109 113.035 10.5849 114.97 14.6381C116.905 18.6914 117.143 23.2697 115.64 27.5292C114.137 31.7887 111.073 35.2196 107.013 37.1898C102.953 39.1599 98.3814 39.434 94.1419 37.961L94.1422 37.9603ZM105.069 6.99343C96.8253 4.12925 87.7412 8.53725 84.8189 16.8195C81.8966 25.1017 86.2256 34.1702 94.4689 37.0343C102.712 39.8985 111.796 35.4905 114.719 27.2083C117.641 18.9261 113.312 9.85824 105.068 6.99406L105.069 6.99343Z" fill="#3A3A3A"/>
<path d="M109.16 17.3482L89.5679 23.2307L90.5966 26.7599L110.189 20.8774L109.16 17.3482Z" fill="white"/>
<path d="M95.2484 12.7739L100.968 32.3945L104.512 31.3304L98.7925 11.7098L95.2484 12.7739Z" fill="white"/>
<path d="M63.715 55.455C68.401 56.3965 79.5483 51.3629 81.0982 48.6317C82.1411 46.7945 86.4887 45.1078 88.2983 44.6001C92.1993 43.5073 94.137 43.172 95.0575 41.263C95.5764 40.1859 94.8595 39.5096 94.1612 39.326C93.5191 39.1563 92.5403 39.309 91.2326 39.5924C90.9661 39.6507 85.9168 39.7298 85.6237 39.7966C82.325 40.5497 74.0458 43.0631 74.0458 43.0631C70.7114 44.5438 63.716 55.4544 63.716 55.4544L63.715 55.455Z" fill="#F9BB8D"/>
<path d="M91.2132 39.5915C91.1955 39.8298 91.2313 40.1267 91.4061 40.4522C91.8407 41.2594 93.9221 40.556 94.2002 40.4188C94.3924 40.3247 94.2483 39.7008 94.1407 39.3243C93.4987 39.1547 92.5201 39.3073 91.2127 39.5905L91.2132 39.5915Z" fill="#FFD8BE"/>
<path d="M97.107 58.6863L97.526 57.9981C98.3612 56.6577 96.8993 54.7979 94.4465 53.4544L88.4711 50.19C85.9561 48.8124 84.2965 48.6719 83.1453 49.8277C82.9396 50.0337 82.7252 50.379 82.6158 50.6579C82.0319 52.1454 82.615 53.611 85.1292 54.9884L91.3441 58.4302C93.7969 59.7737 96.2718 60.0266 97.107 58.6863Z" fill="#F9BB8D"/>
<path d="M93.453 63.766L93.9755 62.9724C94.9069 61.5556 93.6187 59.6493 91.3211 58.2828L85.2519 54.6719C82.8965 53.2708 80.7303 52.9958 79.5305 54.2724C79.3048 54.5131 79.1016 54.8339 78.9647 55.1622C78.2996 56.753 79.4372 58.5309 81.7934 59.9322L87.8626 63.5432C90.1602 64.9097 92.5216 65.1828 93.453 63.766Z" fill="#F9BB8D"/>
<path d="M90.0693 67.919L90.4226 67.2651C91.1105 65.9906 90.2017 64.4684 88.5459 63.5214L85.0573 61.7441C83.7038 61.0298 81.8568 60.3523 80.8072 61.9344C79.5407 63.8444 81.4772 65.7487 82.2872 66.1354L85.9918 68.2547C87.6476 69.2017 89.3815 69.1934 90.0693 67.919Z" fill="#F9BB8D"/>
<path d="M83.6002 50.6759C84.2172 49.586 85.2697 49.7526 86.1983 50.2924L87.3703 50.9729C87.8134 51.2306 87.9811 51.7338 87.7419 52.0925L86.8903 53.3695C86.626 53.7665 86.0065 53.8581 85.5152 53.5727L84.1806 52.7973C83.3895 52.3378 83.3239 51.1618 83.5994 50.6757L83.6002 50.6759Z" fill="#FFD8BE"/>
<path d="M97.9739 53.4226C98.0506 53.2997 98.5106 52.4938 98.5106 52.4938C99.1447 51.323 97.8217 49.9673 95.8402 49.026L91.4078 46.9195C89.3763 45.9542 88.1128 45.3673 87.1082 46.3661C86.8424 46.6307 86.5072 47.3004 86.4013 47.6843C85.9484 49.3223 87.4216 50.1413 89.4531 51.1066L93.4871 53.3712C95.4686 54.3126 97.2706 54.5548 97.9741 53.4218L97.9739 53.4226Z" fill="#F9BB8D"/>
<path d="M79.8187 55.3329L79.8697 55.2272C80.329 54.2685 81.3628 53.8584 82.1671 54.3158L83.2241 54.9165C83.6074 55.1349 83.7418 55.6876 83.5229 56.1452L82.7656 57.7248C82.5226 58.2319 81.975 58.4494 81.5501 58.2068L80.3522 57.5256C79.6673 57.136 79.4274 56.1495 79.8187 55.3329Z" fill="#FFD8BE"/>
<path d="M81.4524 62.3248L81.434 62.3541C80.9535 63.1054 81.1227 64.0612 81.8112 64.4788L83.0043 65.203C83.3327 65.4028 83.7894 65.2724 84.0185 64.9142L84.7758 63.7308C85.0302 63.3334 84.9402 62.8276 84.5761 62.6062L83.2626 61.8089C82.6761 61.4526 81.8617 61.6854 81.4516 62.3246L81.4524 62.3248Z" fill="#FFD8BE"/>
<path d="M86.9564 47.365L87.0684 47.1713C87.4548 46.5038 88.3851 46.263 89.135 46.6355L89.9901 47.0608C90.3482 47.2386 90.4898 47.6456 90.3055 47.9642L89.5989 49.1836C89.3939 49.5367 88.9019 49.6648 88.5052 49.467L87.519 48.9766C86.8799 48.6584 86.6266 47.9334 86.9566 47.3642L86.9564 47.365Z" fill="#FFD8BE"/>
<path d="M83.4655 53.6807L83.3705 53.8445L92.1545 58.9409L92.2495 58.7771L83.4655 53.6807Z" fill="#E6A154"/>
<path d="M86.775 49.2668L86.6848 49.4336L95.3193 54.1017L95.4096 53.9348L86.775 49.2668Z" fill="#E6A154"/>
<path d="M83.6074 60.9017L83.5195 61.07L90.2834 64.5965L90.3713 64.4282L83.6074 60.9017Z" fill="#E6A154"/>
<path d="M84.0552 67.2541C83.5399 66.9596 81.5851 65.7457 81.5652 65.7335L81.6648 65.5743C81.6847 65.5866 83.6366 66.7988 84.149 67.0916L84.0552 67.2541Z" fill="#E6A154"/>
<path d="M62.9073 84.0498C62.9073 84.0498 59.8306 91.0863 55.4709 100.474L17 100.474C28.4031 89.9845 50.2272 70.3463 50.2272 70.3463C50.2272 70.3463 65.0745 77.0037 62.9073 84.0498Z" fill="#E7A255"/>
<path d="M45.4288 74.6692C45.4288 74.6692 48.5298 81.7777 51.2134 85.1345L54.6263 84.3363L53.4774 87.1147C53.4774 87.1147 58.2765 90.172 60.2926 89.9219L63.4255 82.3459L51.9144 68.9995L45.4286 74.6697L45.4288 74.6692Z" fill="#E7A255"/>
<path d="M54.8144 65.0704C54.8144 65.0704 49.4932 68.6622 44.0508 72.6046C44.0508 72.6046 48.9475 80.1925 52.0919 83.1215L59.3042 79.4972L55.8022 85.994C55.8022 85.994 59.4661 89.3607 61.6422 89.7722C61.6422 89.7722 64.0604 83.566 65.729 79.5347C65.729 79.5347 55.2394 71.2872 54.8147 65.071L54.8144 65.0704Z" fill="white"/>
<path d="M50.4341 77.9446C50.6254 77.494 51.1427 77.2817 51.5896 77.4708C52.0366 77.6599 52.2442 78.1784 52.053 78.6289C51.8617 79.0794 51.3444 79.2917 50.8975 79.1026C50.4505 78.9135 50.2429 78.3951 50.4341 77.9446Z" fill="#E7A255"/>
<defs>
<clipPath id="clip0_12_1592">
<rect width="130.591" height="102" fill="white"/>
</clipPath>
</defs>
</svg>
