<svg width="169" height="132" viewBox="0 0 169 132" fill="none" xmlns="http://www.w3.org/2000/svg">
<g clip-path="url(#clip0_2296_158)">
<path d="M168.945 94.4228C169.88 73.5098 159.563 55.5435 143.988 45.4236C141.073 43.5254 139.171 40.4022 138.786 36.937C138.764 36.7494 138.742 36.5618 138.72 36.3742C135.86 13.4085 114.467 -2.72591 91.6877 0.3862C69.8987 3.36588 54.2031 14.9204 56.5239 37.1687C56.5239 37.2681 56.5458 37.4226 56.5569 37.6212C56.9638 43.6799 52.2232 48.7785 46.1848 48.9219C44.9199 48.955 43.644 49.0323 42.3571 49.1647C16.3664 51.8906 -2.49691 75.3308 0.274844 101.508C1.53973 113.482 7.17123 123.966 15.3985 131.536H150.928C161.235 121.648 168.351 107.92 168.956 94.4228H168.945Z" fill="#D3E6D3"/>
<path d="M168.142 132.073H8.04008C7.78711 132.073 7.57812 131.621 7.57812 131.073C7.57812 130.526 7.78711 130.073 8.04008 130.073H168.142C168.395 130.073 168.604 130.526 168.604 131.073C168.604 131.621 168.395 132.073 168.142 132.073Z" fill="#5DA457"/>
</g>
<g clip-path="url(#clip1_2296_158)">
<path d="M123.579 118.827C123.305 119.288 123.054 119.847 122.739 120.421C122.468 121.024 122.147 121.651 121.86 122.347C121.548 123.024 121.286 123.77 120.983 124.524C120.673 125.276 120.466 126.098 120.166 126.894C119.951 127.722 119.663 128.539 119.459 129.385C119.335 129.928 119.186 130.463 119.053 131H134C131.816 122.544 124.87 103.142 106.496 99.1967L91.382 109.352L90.9995 109.086V109.393L91.8782 109.322L98.0476 110.49L96.4813 113.547L92.8537 120.768L93.7824 131H116.759C116.89 130.264 117.095 129.531 117.254 128.791C117.484 127.898 117.796 127.026 118.078 126.164C118.424 125.322 118.759 124.49 119.147 123.718C119.521 122.937 119.931 122.206 120.363 121.539C120.757 120.853 121.235 120.265 121.641 119.711C122.504 118.631 123.326 117.825 123.943 117.314C124.566 116.805 124.961 116.577 124.961 116.577C124.961 116.577 124.694 116.951 124.283 117.614C124.081 117.951 123.84 118.356 123.578 118.828L123.579 118.827Z" fill="#5DA457"/>
<path d="M77.1817 99.5151C77.1817 99.5151 52.7476 102.945 48 131H63.1482C63.1428 130.968 63.1343 130.935 63.129 130.902C62.9728 130.058 62.7146 129.227 62.5212 128.38C62.3183 127.535 62.0303 126.718 61.8136 125.89C61.515 125.094 61.3067 124.271 60.9954 123.521C60.6936 122.766 60.4322 122.02 60.1198 121.341C59.8318 120.647 59.5109 120.019 59.241 119.416C58.9255 118.843 58.6736 118.284 58.4005 117.822C58.1391 117.351 57.899 116.946 57.6961 116.609C57.2848 115.944 57.0171 115.573 57.0171 115.573C57.0171 115.573 57.4113 115.801 58.0361 116.309C58.6513 116.82 59.4748 117.626 60.3376 118.707C60.7446 119.259 61.2217 119.848 61.6159 120.535C62.0484 121.203 62.4575 121.931 62.8315 122.714C63.2204 123.487 63.5562 124.318 63.9015 125.161C64.1842 126.024 64.4966 126.895 64.7261 127.788C64.9184 128.688 65.1862 129.576 65.2988 130.476C65.3254 130.652 65.3509 130.827 65.3775 131.002H88.5863L89.5618 120.771L85.9352 113.549L86.4824 111.677L90.0145 109.476L90.9995 109.396V109.09L77.1817 99.5183V99.5151Z" fill="#5DA457"/>
<path d="M64.7272 127.786C64.4976 126.893 64.1852 126.021 63.9026 125.159C63.5583 124.316 63.2225 123.485 62.8326 122.712C62.4585 121.929 62.0484 121.201 61.617 120.533C61.2238 119.846 60.7457 119.257 60.3387 118.705C59.4759 117.624 58.6534 116.818 58.0371 116.306C57.4123 115.799 57.0181 115.571 57.0181 115.571C57.0181 115.571 57.2859 115.942 57.6971 116.607C57.899 116.944 58.1402 117.349 58.4016 117.82C58.6747 118.282 58.9276 118.841 59.2421 119.414C59.512 120.017 59.8329 120.645 60.1209 121.339C60.4333 122.018 60.6947 122.765 60.9964 123.519C61.3078 124.269 61.515 125.092 61.8146 125.887C62.0314 126.716 62.3193 127.533 62.5223 128.378C62.7157 129.225 62.9739 130.055 63.1301 130.9C63.1343 130.933 63.1428 130.966 63.1492 130.998H65.3796C65.353 130.823 65.3275 130.648 65.3009 130.472C65.1883 129.573 64.9205 128.684 64.7282 127.784L64.7272 127.786Z" fill="#31632C"/>
<path d="M120.166 126.895C120.466 126.099 120.673 125.276 120.983 124.525C121.286 123.771 121.548 123.025 121.86 122.348C122.147 121.652 122.468 121.025 122.739 120.422C123.054 119.848 123.305 119.289 123.579 118.828C123.841 118.356 124.082 117.952 124.284 117.614C124.695 116.951 124.962 116.577 124.962 116.577C124.962 116.577 124.567 116.805 123.944 117.314C123.327 117.825 122.505 118.631 121.642 119.711C121.236 120.265 120.758 120.853 120.364 121.539C119.932 122.206 119.522 122.937 119.148 123.718C118.759 124.49 118.425 125.322 118.079 126.164C117.797 127.026 117.485 127.898 117.255 128.791C117.096 129.531 116.892 130.264 116.76 131H119.054C119.187 130.463 119.336 129.928 119.46 129.385C119.664 128.539 119.951 127.722 120.167 126.894L120.166 126.895Z" fill="#31632C"/>
<path d="M101.742 83.9654H80.3311V109.353H101.742V83.9654Z" fill="#FBC584"/>
<path d="M80.2993 97.3086L102.372 84.9174L80.294 79.841L80.2993 97.3086Z" fill="#D7A36B"/>
<path d="M96.4813 113.547L98.0476 110.49L91.8793 109.322" fill="#D3E6D3"/>
<path d="M90.0155 109.474L86.4835 111.675L85.9363 113.547L86.7874 112.071L90.0155 109.474Z" fill="#D3E6D3"/>
<path d="M63.8813 52.7832C63.8813 71.8534 75.7695 87.3509 90.5574 87.7769V24.6687C76.0267 25.1426 63.8813 33.9791 63.8813 52.7821V52.7832Z" fill="#EEB97B"/>
<path d="M91.7996 24.6461C91.3841 24.6461 90.9708 24.6557 90.5585 24.6685V87.7756C90.7657 87.781 90.9729 87.7959 91.1801 87.7959C106.258 87.7959 118.478 72.1194 118.478 52.7819C118.478 33.4443 106.877 24.6461 91.7996 24.6461Z" fill="#FBC584"/>
<path d="M115.726 54.9798C115.139 59.0169 116.268 62.5257 118.244 62.8165C120.222 63.1082 122.3 60.0733 122.886 56.0362C123.473 52.0013 122.343 48.4914 120.367 48.1996C118.391 47.9078 116.312 50.9428 115.725 54.9798H115.726Z" fill="#FBC584"/>
<path d="M77.4346 21.3119C76.0298 21.8241 74.0598 22.002 72.4946 22.0552C71.0612 22.1042 69.9657 22.0477 69.9657 22.0477C70.0241 22.2863 70.2558 22.84 70.4789 23.348C70.7159 23.889 70.9443 24.3788 70.9443 24.3788C70.6702 24.4065 70.1686 24.2691 69.5651 24.0455C67.4739 23.2766 64.0875 21.4344 64.0875 21.4344C63.7209 24.2574 64.3946 26.7738 65.1607 28.583C65.9247 30.3923 66.7822 31.4956 66.7822 31.4956C66.1701 31.618 64.4562 30.8822 64.4562 30.8822C64.946 33.2132 65.4359 34.3186 65.4359 34.3186C61.754 37.0128 60.8987 44.7909 60.8307 50.8746L67.1488 58.2629L69.3281 52.9608C69.3749 52.9661 69.4195 52.9682 69.4663 52.9746C71.0091 47.3924 72.2906 38.9808 72.2906 38.9808C78.9976 43.2957 85.4857 44.4501 90.9995 44.1924V19.2268C84.1713 19.738 78.3951 20.9615 77.4346 21.3119Z" fill="#794014"/>
<path d="M120.297 47.6278C119.645 38.9786 116.125 32.7234 116.125 32.7234C118.48 22.2022 108.665 19.2705 98.3175 19.0181C95.8565 18.9585 93.3658 19.0501 91.0005 19.2268V44.1934C99.0283 43.8186 104.987 40.4503 106.541 39.4855C107.04 38.9392 107.301 38.6112 107.301 38.6112C108.236 49.2166 115.392 56.3898 115.392 56.3898C114.792 51.8852 119.948 48.354 120.332 48.0974C120.347 48.0878 120.368 48.0729 120.368 48.0729C120.347 47.9195 120.32 47.7768 120.297 47.6267V47.6278Z" fill="#84471C"/>
<path d="M64.0939 48.2635C64.0939 48.2635 68.595 25.5364 90.2344 25.5364C111.874 25.5364 117.587 45.3148 117.587 45.3148L114.298 45.6619C114.298 45.6619 108.931 30.7405 90.839 30.7405C72.7475 30.7405 66.3434 48.2635 66.3434 48.2635H64.0928H64.0939Z" fill="#31632C"/>
<path d="M115.164 47.0495C115.164 47.0495 117.242 64.7461 116.721 65.96C116.721 65.96 123.646 67.0005 123.82 61.4491V51.9076C123.82 51.9076 123.541 48.5585 119.493 47.0495H115.856" fill="#31632C"/>
<path d="M96.0446 76.1032C96.0446 76.1032 111.355 74.901 117.588 67.5872C117.588 67.5872 119.139 66.485 120.24 68.6894C121.339 70.8948 104.943 78.3076 96.0446 78.709C96.0446 78.709 95.6451 80.3128 91.2471 80.4129C86.848 80.513 85.8481 79.0104 85.8481 79.0104C85.8481 79.0104 83.7484 76.6048 86.2476 74.902C88.7468 73.1982 90.8412 73.8648 90.8412 73.8648C90.8412 73.8648 95.1467 74.1001 96.0446 76.1043V76.1032Z" fill="#31632C"/>
<path d="M65.7323 54.6508C66.1159 58.6346 64.9545 62.0082 63.1407 62.185C61.3279 62.3628 59.546 59.2767 59.1635 55.2929C58.7809 51.3081 59.9413 47.9345 61.7551 47.7566C63.57 47.5809 65.3509 50.667 65.7334 54.6508H65.7323Z" fill="#EEB97B"/>
<path d="M90.0155 109.474L86.7874 112.071L85.9363 113.547L89.5629 120.768L88.5874 131H91.0005V109.393L90.0155 109.474Z" fill="#F99746"/>
<path d="M92.8537 120.768L96.4813 113.547L96.1052 111.507L91.8793 109.322L91.0005 109.393V131H93.7834L92.8537 120.768Z" fill="#F99746"/>
<path d="M78.443 96.3406L91.3831 109.353L83.2309 115.921L75.9225 99.1967L78.443 96.3406Z" fill="#31632C"/>
<path d="M103.976 96.3406L91.3831 109.353L99.804 116.181L106.497 99.1967L103.976 96.3406Z" fill="#31632C"/>
</g>
<defs>
<clipPath id="clip0_2296_158">
<rect width="169" height="132" fill="white"/>
</clipPath>
<clipPath id="clip1_2296_158">
<rect width="86" height="112" fill="white" transform="translate(48 19)"/>
</clipPath>
</defs>
</svg>
