<svg width="131" height="102" viewBox="0 0 131 102" fill="none" xmlns="http://www.w3.org/2000/svg">
<g clip-path="url(#clip0_12_1554)">
<path d="M130.548 72.9631C131.271 56.8031 123.299 42.92 111.264 35.1001C109.011 33.6333 107.541 31.22 107.244 28.5423C107.227 28.3973 107.21 28.2523 107.193 28.1074C104.983 10.3612 88.4517 -2.10634 70.8497 0.298475C54.0127 2.60096 41.8843 11.5295 43.6777 28.7213C43.6777 28.7981 43.6946 28.9175 43.7031 29.071C44.0176 33.7527 40.3544 37.6925 35.6884 37.8034C34.7109 37.8289 33.725 37.8886 32.7306 37.991C12.6469 40.0973 -1.92931 58.2102 0.212505 78.4379C1.18992 87.6905 5.54153 95.7918 11.899 101.642H116.627C124.59 94.001 130.089 83.3925 130.557 72.9631H130.548Z" fill="#D3E6D3"/>
<path d="M127.072 102.057H3.35697C3.16149 102.057 3 101.707 3 101.284C3 100.861 3.16149 100.511 3.35697 100.511H127.072C127.267 100.511 127.429 100.861 127.429 101.284C127.429 101.707 127.267 102.057 127.072 102.057Z" fill="#5DA457"/>
</g>
<g clip-path="url(#clip1_12_1554)">
<path d="M95.4931 91.821C95.2813 92.1773 95.0875 92.6093 94.8436 93.0528C94.6343 93.5186 94.3863 94.0032 94.1646 94.5406C93.9232 95.0639 93.7212 95.6408 93.4872 96.2234C93.2474 96.8043 93.0873 97.4396 92.8558 98.0543C92.6891 98.6945 92.4666 99.3256 92.3089 99.979C92.2137 100.399 92.0979 100.813 91.9953 101.227H103.545C101.858 94.6928 96.4907 79.7008 82.2925 76.652L70.6134 84.499L70.3178 84.2941V84.5311L70.9968 84.4759L75.7641 85.3786L74.5538 87.7411L71.7506 93.3211L72.4682 101.227H90.2226C90.3244 100.659 90.4828 100.093 90.6052 99.5206C90.7834 98.8302 91.0239 98.1563 91.2424 97.4906C91.5092 96.8397 91.7687 96.197 92.0684 95.6004C92.3574 94.9964 92.6743 94.4319 93.0077 93.9168C93.3123 93.3861 93.6818 92.9318 93.9954 92.5039C94.6622 91.6695 95.2977 91.0466 95.7739 90.6516C96.2559 90.2583 96.5605 90.0822 96.5605 90.0822C96.5605 90.0822 96.3544 90.371 96.0367 90.8837C95.8807 91.1437 95.6943 91.4572 95.4923 91.8218L95.4931 91.821Z" fill="#5DA457"/>
<path d="M59.6404 76.8981C59.6404 76.8981 40.7596 79.5485 37.0909 101.227H48.7963C48.7922 101.203 48.7857 101.177 48.7816 101.152C48.6609 100.499 48.4613 99.8572 48.3119 99.203C48.1551 98.5496 47.9326 97.9185 47.7651 97.2783C47.5343 96.6636 47.3734 96.0275 47.1328 95.4482C46.8996 94.8648 46.6976 94.288 46.4562 93.7638C46.2337 93.2273 45.9858 92.7418 45.7772 92.276C45.5333 91.8333 45.3387 91.4013 45.1277 91.0442C44.9257 90.6805 44.7402 90.3678 44.5833 90.1069C44.2656 89.5934 44.0587 89.3062 44.0587 89.3062C44.0587 89.3062 44.3633 89.4823 44.8461 89.8749C45.3215 90.2698 45.9578 90.8928 46.6246 91.728C46.939 92.155 47.3077 92.6101 47.6123 93.1409C47.9465 93.6568 48.2626 94.2197 48.5517 94.8245C48.8522 95.4219 49.1116 96.0637 49.3785 96.7154C49.5969 97.382 49.8383 98.0551 50.0156 98.7455C50.1643 99.4408 50.3712 100.127 50.4582 100.822C50.4787 100.958 50.4984 101.094 50.519 101.229H68.4531L69.2069 93.3227L66.4045 87.7428L66.8274 86.2962L69.5567 84.5953L70.3178 84.5335V84.2966L59.6404 76.9005V76.8981Z" fill="#5DA457"/>
<path d="M50.0165 98.7438C49.8391 98.0534 49.5977 97.3795 49.3793 96.7138C49.1133 96.0621 48.8538 95.4202 48.5525 94.8228C48.2635 94.218 47.9465 93.6552 47.6132 93.1392C47.3094 92.6085 46.9399 92.1534 46.6254 91.7263C45.9587 90.8911 45.3232 90.2682 44.8469 89.8732C44.3641 89.4807 44.0595 89.3046 44.0595 89.3046C44.0595 89.3046 44.2664 89.5918 44.5842 90.1053C44.7402 90.3661 44.9266 90.6788 45.1286 91.0425C45.3396 91.3996 45.535 91.8317 45.778 92.2744C45.9866 92.7401 46.2346 93.2256 46.4571 93.7621C46.6985 94.2863 46.9005 94.864 47.1337 95.4466C47.3742 96.0259 47.5343 96.662 47.7659 97.2766C47.9334 97.9168 48.1559 98.548 48.3127 99.2014C48.4622 99.8555 48.6617 100.497 48.7824 101.15C48.7857 101.175 48.7922 101.201 48.7972 101.226H50.5206C50.5001 101.091 50.4804 100.955 50.4599 100.819C50.3728 100.125 50.1659 99.4375 50.0173 98.7422L50.0165 98.7438Z" fill="#31632C"/>
<path d="M92.8558 98.0551C93.0873 97.4404 93.2474 96.8043 93.4872 96.2242C93.7212 95.6416 93.9232 95.0647 94.1646 94.5414C94.3863 94.0041 94.6343 93.5194 94.8436 93.0536C95.0875 92.6101 95.2813 92.1781 95.4931 91.8218C95.6951 91.4572 95.8815 91.1446 96.0375 90.8837C96.3553 90.371 96.5613 90.0822 96.5613 90.0822C96.5613 90.0822 96.2567 90.2583 95.7748 90.6516C95.2985 91.0466 94.663 91.6695 93.9963 92.5039C93.6826 92.9318 93.3131 93.3861 93.0085 93.9168C92.6752 94.432 92.3582 94.9964 92.0692 95.6004C91.7687 96.197 91.51 96.8397 91.2432 97.4906C91.0248 98.1563 90.7842 98.8302 90.606 99.5206C90.4837 100.093 90.326 100.659 90.2234 101.227H91.9961C92.0987 100.813 92.2145 100.399 92.3098 99.979C92.4674 99.3256 92.6891 98.6945 92.8566 98.0543L92.8558 98.0551Z" fill="#31632C"/>
<path d="M78.619 64.8824H62.0741V84.4998H78.619V64.8824Z" fill="#FBC584"/>
<path d="M62.0495 75.193L79.1059 65.618L62.0453 61.6954L62.0495 75.193Z" fill="#D7A36B"/>
<path d="M74.5538 87.7411L75.7641 85.3786L70.9977 84.4759" fill="#D3E6D3"/>
<path d="M69.5575 84.5936L66.8282 86.2945L66.4053 87.7411L67.063 86.6006L69.5575 84.5936Z" fill="#D3E6D3"/>
<path d="M49.3629 40.7872C49.3629 55.5233 58.5492 67.4986 69.9763 67.8278V19.0623C58.7479 19.4285 49.3629 26.2568 49.3629 40.7863V40.7872Z" fill="#EEB97B"/>
<path d="M70.9361 19.0447C70.6151 19.0447 70.2957 19.0521 69.9771 19.062V67.8266C70.1372 67.8307 70.2973 67.8423 70.4574 67.8423C82.1086 67.8423 91.5511 55.7287 91.5511 40.786C91.5511 25.8434 82.5865 19.0447 70.9361 19.0447Z" fill="#FBC584"/>
<path d="M89.4245 42.4844C88.9712 45.604 89.8432 48.3154 91.3704 48.54C92.8985 48.7655 94.5045 46.4203 94.9578 43.3007C95.411 40.1828 94.5382 37.4706 93.011 37.2452C91.4838 37.0197 89.8777 39.3649 89.4237 42.4844H89.4245Z" fill="#FBC584"/>
<path d="M59.8358 16.4683C58.7504 16.8641 57.2281 17.0015 56.0186 17.0427C54.911 17.0805 54.0644 17.0369 54.0644 17.0369C54.1096 17.2212 54.2886 17.6491 54.461 18.0416C54.6441 18.4597 54.8206 18.8382 54.8206 18.8382C54.6088 18.8596 54.2213 18.7534 53.7549 18.5806C52.139 17.9865 49.5222 16.5629 49.5222 16.5629C49.2389 18.7444 49.7595 20.6888 50.3515 22.0869C50.9418 23.485 51.6045 24.3375 51.6045 24.3375C51.1315 24.4321 49.8071 23.8635 49.8071 23.8635C50.1856 25.6648 50.5641 26.5189 50.5641 26.5189C47.7191 28.6008 47.0581 34.6111 47.0056 39.3122L51.8877 45.0214L53.5718 40.9243C53.6079 40.9284 53.6424 40.93 53.6785 40.935C54.8707 36.6214 55.861 30.1215 55.861 30.1215C61.0437 33.4558 66.0572 34.3478 70.3178 34.1487V14.8571C65.0415 15.2521 60.5781 16.1976 59.8358 16.4683Z" fill="#794014"/>
<path d="M92.9568 36.8033C92.4526 30.1199 89.7332 25.2863 89.7332 25.2863C91.5527 17.1562 83.9683 14.8908 75.9726 14.6958C74.071 14.6497 72.1463 14.7205 70.3186 14.8571V34.1495C76.5219 33.8598 81.1266 31.2571 82.327 30.5115C82.7129 30.0894 82.9141 29.836 82.9141 29.836C83.6366 38.031 89.1666 43.5739 89.1666 43.5739C88.7027 40.0931 92.6874 37.3645 92.9838 37.1662C92.9953 37.1588 93.0118 37.1472 93.0118 37.1472C92.9953 37.0287 92.9748 36.9185 92.9568 36.8025V36.8033Z" fill="#84471C"/>
<path d="M49.5271 37.2945C49.5271 37.2945 53.0052 19.7327 69.7267 19.7327C86.4481 19.7327 90.863 35.016 90.863 35.016L88.321 35.2842C88.321 35.2842 84.1737 23.7541 70.1938 23.7541C56.214 23.7541 51.2654 37.2945 51.2654 37.2945H49.5263H49.5271Z" fill="#31632C"/>
<path d="M88.9901 36.3564C88.9901 36.3564 90.5962 50.031 90.1938 50.9691C90.1938 50.9691 95.5448 51.7731 95.6795 47.4834V40.1104C95.6795 40.1104 95.4635 37.5225 92.3352 36.3564H89.5255" fill="#31632C"/>
<path d="M74.2164 58.807C74.2164 58.807 86.0474 57.878 90.8639 52.2265C90.8639 52.2265 92.0618 51.3748 92.9125 53.0782C93.7623 54.7823 81.0921 60.5104 74.2164 60.8206C74.2164 60.8206 73.9076 62.0599 70.5092 62.1372C67.1099 62.2146 66.3372 61.0535 66.3372 61.0535C66.3372 61.0535 64.7148 59.1946 66.646 57.8788C68.5771 56.5622 70.1955 57.0774 70.1955 57.0774C70.1955 57.0774 73.5225 57.2592 74.2164 58.8079V58.807Z" fill="#31632C"/>
<path d="M50.7932 42.2302C51.0896 45.3086 50.1922 47.9154 48.7906 48.052C47.3898 48.1895 46.0128 45.8047 45.7172 42.7264C45.4216 39.6471 46.3183 37.0403 47.7199 36.9028C49.1223 36.7671 50.4984 39.1518 50.794 42.2302H50.7932Z" fill="#EEB97B"/>
<path d="M69.5575 84.5936L67.063 86.6006L66.4053 87.7411L69.2077 93.3211L68.4539 101.227H70.3186V84.5311L69.5575 84.5936Z" fill="#F99746"/>
<path d="M71.7506 93.321L74.5538 87.7411L74.2631 86.1645L70.9976 84.4759L70.3186 84.5311V101.227H72.469L71.7506 93.321Z" fill="#F99746"/>
<path d="M60.615 74.445L70.6142 84.4998L64.3148 89.5753L58.6674 76.652L60.615 74.445Z" fill="#31632C"/>
<path d="M80.3449 74.445L70.6142 84.4998L77.1213 89.7761L82.2933 76.652L80.3449 74.445Z" fill="#31632C"/>
</g>
<defs>
<clipPath id="clip0_12_1554">
<rect width="130.591" height="102" fill="white"/>
</clipPath>
<clipPath id="clip1_12_1554">
<rect width="66.4546" height="86.5455" fill="white" transform="translate(37.0909 14.6818)"/>
</clipPath>
</defs>
</svg>
