<svg width="130" height="99" viewBox="0 0 130 99" fill="none" xmlns="http://www.w3.org/2000/svg">
<path d="M115.807 19.3163C64.1799 -24.2246 0.346032 12.5065 0.000949611 63.5332C-0.478597 134.111 181.173 74.4433 115.807 19.3163Z" fill="#D3E6D3"/>
<path fill-rule="evenodd" clip-rule="evenodd" d="M39.8996 23H89.0991C97.3282 23 104 29.6696 104 37.8899V62.0867C104 70.307 97.3282 76.9712 89.0991 76.9712H87.8486L87.7006 99L63.0798 76.9712H39.9009C31.6704 76.9712 25 70.307 25 62.0867V37.8899C25 29.6696 31.6704 23 39.9009 23H39.8996ZM76.8973 53.3156C76.8973 54.4403 77.8097 55.3534 78.9366 55.3534H83.8529C84.9784 55.3534 85.8922 54.4417 85.8922 53.3156V48.4016C85.8922 47.2769 84.9798 46.3638 83.8529 46.3638H78.9366C77.811 46.3638 76.8973 47.2756 76.8973 48.4016V53.3156ZM60.0019 53.3156C60.0019 54.4403 60.9143 55.3534 62.0412 55.3534H66.9575C68.083 55.3534 68.9967 54.4417 68.9967 53.3156V48.4016C68.9967 47.2769 68.0844 46.3638 66.9575 46.3638H62.0412C60.9156 46.3638 60.0019 47.2756 60.0019 48.4016V53.3156ZM43.1065 53.3156C43.1065 54.4403 44.0189 55.3534 45.1458 55.3534H50.0621C51.1876 55.3534 52.1013 54.4417 52.1013 53.3156V48.4016C52.1013 47.2769 51.189 46.3638 50.0621 46.3638H45.1458C44.0202 46.3638 43.1065 47.2756 43.1065 48.4016V53.3156Z" fill="#5DA457"/>
<path d="M43.1065 53.3156C43.1065 54.4403 44.0189 55.3534 45.1458 55.3534H50.0621C51.1876 55.3534 52.1013 54.4417 52.1013 53.3156V48.4016C52.1013 47.2769 51.189 46.3638 50.0621 46.3638H45.1458C44.0202 46.3638 43.1065 47.2756 43.1065 48.4016V53.3156Z" fill="white"/>
<path d="M60.0019 53.3156C60.0019 54.4403 60.9143 55.3534 62.0412 55.3534H66.9575C68.083 55.3534 68.9967 54.4417 68.9967 53.3156V48.4016C68.9967 47.2769 68.0844 46.3638 66.9575 46.3638H62.0412C60.9156 46.3638 60.0019 47.2756 60.0019 48.4016V53.3156Z" fill="white"/>
<path d="M76.8973 53.3156C76.8973 54.4403 77.8097 55.3534 78.9366 55.3534H83.8529C84.9784 55.3534 85.8922 54.4417 85.8922 53.3156V48.4016C85.8922 47.2769 84.9798 46.3638 83.8529 46.3638H78.9366C77.811 46.3638 76.8973 47.2756 76.8973 48.4016V53.3156Z" fill="white"/>
</svg>
