<svg width="376" height="116" viewBox="0 0 376 116" fill="none" xmlns="http://www.w3.org/2000/svg">
<path d="M351.437 63.6852C257.671 81.014 222.141 35.401 132.782 71.013C126.03 73.703 119.455 76.1586 113 78.4021C147.98 95.4129 186.695 113.651 246.35 115.873C300.709 117.898 333.633 95.2343 376 85.4118V60.9505C367.596 61.3356 359.389 62.223 351.437 63.6908V63.6852Z" fill="#D3E6D3"/>
<path d="M0 48.6513V96.7094C39.3333 98.362 75.8474 93.0503 118 78.6103C81.0533 60.8878 48.1878 44.4975 0 48.6513Z" fill="#DCEBDC"/>
<path d="M351.604 65.001C359.495 63.5421 367.653 62.6657 376 62.2774V7H0V50.0625C46.8764 45.9632 78.8474 62.1387 114.789 79.6288C121.2 77.4044 127.73 74.9637 134.436 72.2844C223.187 36.8881 258.476 82.2249 351.604 65.001Z" fill="#A3C8A3"/>
<rect width="376" height="32" fill="#5DA457"/>
</svg>
